<svg width="72" height="72" viewBox="0 0 72 72" fill="none" xmlns="http://www.w3.org/2000/svg">
<g id="furniture_13738088 1">
<path id="path3377" d="M3 68V4C3 3.44772 3.44772 3 4 3H23C23.5523 3 24 3.44772 24 4V68" stroke="#1B1B1B" stroke-width="3" stroke-miterlimit="10" stroke-linecap="round"/>
<path id="path3377_2" d="M24 68V4C24 3.44772 24.4477 3 25 3H44C44.5523 3 45 3.44772 45 4V68" stroke="#1B1B1B" stroke-width="3" stroke-miterlimit="10" stroke-linecap="round"/>
<path id="path3377_3" d="M51 45C49.8954 45 49 44.1046 49 43V31C49 29.8954 49.8954 29 51 29H68C69.1046 29 70 29.8954 70 31V43" stroke="#1B1B1B" stroke-width="3" stroke-miterlimit="10" stroke-linecap="round"/>
<path id="path3377_4" d="M51 29C49.8954 29 49 28.1046 49 27V25C49 23.8954 49.8954 23 51 23H68C69.1046 23 70 23.8954 70 25V27" stroke="#1B1B1B" stroke-width="3" stroke-miterlimit="10" stroke-linecap="round"/>
<path id="path3377_5" d="M3 59C3 58.4477 3.44772 58 4 58L44 58C44.5523 58 45 58.4477 45 59L45 69C45 69.5523 44.5523 70 44 70L4 70" stroke="#1B1B1B" stroke-width="3" stroke-miterlimit="10" stroke-linecap="round"/>
<path id="Vector 16" d="M56 35H62.5" stroke="#1B1B1B" stroke-width="3" stroke-linecap="round"/>
<path id="Vector 17" d="M30.25 30.75L30.25 37.25" stroke="#1B1B1B" stroke-width="3" stroke-linecap="round"/>
<path id="Vector 18" d="M17 30.75L17 37.25" stroke="#1B1B1B" stroke-width="3" stroke-linecap="round"/>
<path id="Rectangle 34" d="M48 50C48 48.8954 48.8954 48 50 48H69C70.1046 48 71 48.8954 71 50V70C71 71.1046 70.1046 72 69 72H50C48.8954 72 48 71.1046 48 70V50Z" fill="#FFBC57"/>
<path id="Vector 15" d="M56 54.5H62.5" stroke="white" stroke-width="3" stroke-linecap="round"/>
</g>
</svg>
