<svg width="72" height="72" viewBox="0 0 72 72" fill="none" xmlns="http://www.w3.org/2000/svg">
<g id="warehouse_6036366 1" clip-path="url(#clip0_249_384)">
<g id="Group">
<path id="Vector" d="M32.625 32.0625H19.125C18.9034 32.0625 18.6839 32.1061 18.4792 32.1909C18.2744 32.2757 18.0884 32.4 17.9317 32.5567C17.775 32.7134 17.6507 32.8994 17.5659 33.1042C17.4811 33.3089 17.4375 33.5284 17.4375 33.75V45C17.4375 45.2216 17.4811 45.4411 17.5659 45.6458C17.6507 45.8506 17.775 46.0366 17.9317 46.1933C18.0884 46.35 18.2744 46.4743 18.4792 46.5591C18.6839 46.6439 18.9034 46.6875 19.125 46.6875H32.625C32.8466 46.6875 33.0661 46.6439 33.2708 46.5591C33.4756 46.4743 33.6616 46.35 33.8183 46.1933C33.975 46.0366 34.0993 45.8506 34.1841 45.6458C34.2689 45.4411 34.3125 45.2216 34.3125 45V33.75C34.3125 33.5284 34.2689 33.3089 34.1841 33.1042C34.0993 32.8994 33.975 32.7134 33.8183 32.5567C33.6616 32.4 33.4756 32.2757 33.2708 32.1909C33.0661 32.1061 32.8466 32.0625 32.625 32.0625ZM22.5 44.4375H21.375C20.9274 44.4375 20.4982 44.2597 20.1818 43.9432C19.8653 43.6268 19.6875 43.1976 19.6875 42.75C19.6875 42.3024 19.8653 41.8732 20.1818 41.5568C20.4982 41.2403 20.9274 41.0625 21.375 41.0625H22.5C22.9476 41.0625 23.3768 41.2403 23.6932 41.5568C24.0097 41.8732 24.1875 42.3024 24.1875 42.75C24.1875 43.1976 24.0097 43.6268 23.6932 43.9432C23.3768 44.2597 22.9476 44.4375 22.5 44.4375Z" fill="#FFBC57"/>
<path id="Vector_2" d="M52.875 32.0625H39.375C39.1534 32.0625 38.9339 32.1061 38.7292 32.1909C38.5244 32.2757 38.3384 32.4 38.1817 32.5567C38.025 32.7134 37.9007 32.8994 37.8159 33.1042C37.7311 33.3089 37.6875 33.5284 37.6875 33.75V45C37.6875 45.2216 37.7311 45.4411 37.8159 45.6458C37.9007 45.8506 38.025 46.0366 38.1817 46.1933C38.3384 46.35 38.5244 46.4743 38.7292 46.5591C38.9339 46.6439 39.1534 46.6875 39.375 46.6875H52.875C53.0966 46.6875 53.3161 46.6439 53.5208 46.5591C53.7256 46.4743 53.9116 46.35 54.0683 46.1933C54.225 46.0366 54.3493 45.8506 54.4341 45.6458C54.5189 45.4411 54.5625 45.2216 54.5625 45V33.75C54.5625 33.5284 54.5189 33.3089 54.4341 33.1042C54.3493 32.8994 54.225 32.7134 54.0683 32.5567C53.9116 32.4 53.7256 32.2757 53.5208 32.1909C53.3161 32.1061 53.0966 32.0625 52.875 32.0625ZM42.75 44.4375H41.625C41.1774 44.4375 40.7482 44.2597 40.4318 43.9432C40.1153 43.6268 39.9375 43.1976 39.9375 42.75C39.9375 42.3024 40.1153 41.8732 40.4318 41.5568C40.7482 41.2403 41.1774 41.0625 41.625 41.0625H42.75C43.1976 41.0625 43.6268 41.2403 43.9432 41.5568C44.2597 41.8732 44.4375 42.3024 44.4375 42.75C44.4375 43.1976 44.2597 43.6268 43.9432 43.9432C43.6268 44.2597 43.1976 44.4375 42.75 44.4375Z" fill="#FFBC57"/>
<path id="Vector_3" d="M32.625 50.0625H19.125C18.9034 50.0625 18.6839 50.1061 18.4792 50.1909C18.2744 50.2757 18.0884 50.4 17.9317 50.5567C17.775 50.7134 17.6507 50.8994 17.5659 51.1042C17.4811 51.3089 17.4375 51.5284 17.4375 51.75V63C17.4375 63.2216 17.4811 63.4411 17.5659 63.6458C17.6507 63.8506 17.775 64.0366 17.9317 64.1933C18.0884 64.35 18.2744 64.4743 18.4792 64.5591C18.6839 64.6439 18.9034 64.6875 19.125 64.6875H32.625C32.8466 64.6875 33.0661 64.6439 33.2708 64.5591C33.4756 64.4743 33.6616 64.35 33.8183 64.1933C33.975 64.0366 34.0993 63.8506 34.1841 63.6458C34.2689 63.4411 34.3125 63.2216 34.3125 63V51.75C34.3125 51.5284 34.2689 51.3089 34.1841 51.1042C34.0993 50.8994 33.975 50.7134 33.8183 50.5567C33.6616 50.4 33.4756 50.2757 33.2708 50.1909C33.0661 50.1061 32.8466 50.0625 32.625 50.0625ZM22.5 62.4375H21.375C20.9274 62.4375 20.4982 62.2597 20.1818 61.9432C19.8653 61.6268 19.6875 61.1976 19.6875 60.75C19.6875 60.3024 19.8653 59.8732 20.1818 59.5568C20.4982 59.2403 20.9274 59.0625 21.375 59.0625H22.5C22.9476 59.0625 23.3768 59.2403 23.6932 59.5568C24.0097 59.8732 24.1875 60.3024 24.1875 60.75C24.1875 61.1976 24.0097 61.6268 23.6932 61.9432C23.3768 62.2597 22.9476 62.4375 22.5 62.4375Z" fill="#FFBC57"/>
<path id="Vector_4" d="M52.875 50.0625H39.375C39.1534 50.0625 38.9339 50.1061 38.7292 50.1909C38.5244 50.2757 38.3384 50.4 38.1817 50.5567C38.025 50.7134 37.9007 50.8994 37.8159 51.1042C37.7311 51.3089 37.6875 51.5284 37.6875 51.75V63C37.6875 63.2216 37.7311 63.4411 37.8159 63.6458C37.9007 63.8506 38.025 64.0366 38.1817 64.1933C38.3384 64.35 38.5244 64.4743 38.7292 64.5591C38.9339 64.6439 39.1534 64.6875 39.375 64.6875H52.875C53.0966 64.6875 53.3161 64.6439 53.5208 64.5591C53.7256 64.4743 53.9116 64.35 54.0683 64.1933C54.225 64.0366 54.3493 63.8506 54.4341 63.6458C54.5189 63.4411 54.5625 63.2216 54.5625 63V51.75C54.5625 51.5284 54.5189 51.3089 54.4341 51.1042C54.3493 50.8994 54.225 50.7134 54.0683 50.5567C53.9116 50.4 53.7256 50.2757 53.5208 50.1909C53.3161 50.1061 53.0966 50.0625 52.875 50.0625ZM42.75 62.4375H41.625C41.1774 62.4375 40.7482 62.2597 40.4318 61.9432C40.1153 61.6268 39.9375 61.1976 39.9375 60.75C39.9375 60.3024 40.1153 59.8732 40.4318 59.5568C40.7482 59.2403 41.1774 59.0625 41.625 59.0625H42.75C43.1976 59.0625 43.6268 59.2403 43.9432 59.5568C44.2597 59.8732 44.4375 60.3024 44.4375 60.75C44.4375 61.1976 44.2597 61.6268 43.9432 61.9432C43.6268 62.2597 43.1976 62.4375 42.75 62.4375Z" fill="#FFBC57"/>
</g>
<path id="Vector_5" d="M70.5443 18.7611L36.7943 0.761076C36.5498 0.630698 36.2771 0.5625 36 0.5625C35.7229 0.5625 35.4502 0.630698 35.2057 0.761076L1.45569 18.7611C1.18583 18.905 0.960168 19.1197 0.802842 19.382C0.645516 19.6443 0.562441 19.9444 0.5625 20.2503V69.7503C0.562466 69.9719 0.606091 70.1913 0.690884 70.3961C0.775677 70.6008 0.899976 70.7869 1.05668 70.9436C1.21339 71.1003 1.39943 71.2246 1.60418 71.3094C1.80893 71.3942 2.02838 71.4378 2.25 71.4378H69.75C69.9716 71.4378 70.1911 71.3942 70.3958 71.3094C70.6006 71.2246 70.7866 71.1003 70.9433 70.9436C71.1 70.7869 71.2243 70.6008 71.3091 70.3961C71.3939 70.1913 71.4375 69.9719 71.4375 69.7503V20.2503C71.4376 19.9444 71.3545 19.6443 71.1972 19.382C71.0398 19.1197 70.8142 18.905 70.5443 18.7611ZM59.0625 68.0628H12.9375V27.5628H59.0625V68.0628ZM68.0625 68.0628H62.4375V25.8753C62.4375 25.6537 62.3939 25.4342 62.3091 25.2295C62.2243 25.0247 62.1 24.8387 61.9433 24.682C61.7866 24.5252 61.6006 24.4009 61.3958 24.3162C61.1911 24.2314 60.9716 24.1877 60.75 24.1878H11.25C11.0284 24.1877 10.8089 24.2314 10.6042 24.3162C10.3994 24.4009 10.2134 24.5252 10.0567 24.682C9.89998 24.8387 9.77568 25.0247 9.69088 25.2295C9.60609 25.4342 9.56247 25.6537 9.5625 25.8753V68.0628H3.9375V21.2627L36 4.163L68.0625 21.2627V68.0628Z" fill="#1B1B1B"/>
<path id="Vector_6" d="M30.375 15.1875C30.375 16.3 30.7049 17.3876 31.323 18.3126C31.9411 19.2376 32.8196 19.9586 33.8474 20.3843C34.8752 20.8101 36.0062 20.9215 37.0974 20.7044C38.1885 20.4874 39.1908 19.9516 39.9775 19.165C40.7641 18.3783 41.2999 17.376 41.5169 16.2849C41.734 15.1937 41.6226 14.0627 41.1968 13.0349C40.7711 12.0071 40.0501 11.1286 39.1251 10.5105C38.2001 9.8924 37.1125 9.5625 36 9.5625C34.5087 9.56425 33.079 10.1574 32.0245 11.212C30.9699 12.2665 30.3768 13.6962 30.375 15.1875ZM38.25 15.1875C38.25 15.6325 38.118 16.0675 37.8708 16.4375C37.6236 16.8075 37.2722 17.0959 36.861 17.2662C36.4499 17.4365 35.9975 17.4811 35.561 17.3943C35.1246 17.3075 34.7237 17.0932 34.409 16.7785C34.0943 16.4638 33.88 16.0629 33.7932 15.6265C33.7064 15.19 33.751 14.7376 33.9213 14.3265C34.0916 13.9153 34.38 13.5639 34.75 13.3167C35.12 13.0695 35.555 12.9375 36 12.9375C36.5966 12.9381 37.1685 13.1753 37.5903 13.5972C38.0122 14.019 38.2494 14.5909 38.25 15.1875Z" fill="#1B1B1B"/>
</g>
<defs>
<clipPath id="clip0_249_384">
<rect width="72" height="72" fill="white"/>
</clipPath>
</defs>
</svg>
