<svg width="72" height="72" viewBox="0 0 72 72" fill="none" xmlns="http://www.w3.org/2000/svg">
<g id="trolley_6036325 1" clip-path="url(#clip0_249_392)">
<g id="Group">
<path id="Vector" d="M59.0625 20.8125H45.5625C45.115 20.8126 44.6858 20.9904 44.3694 21.3069C44.0529 21.6233 43.8751 22.0525 43.875 22.5V36C43.8751 36.4475 44.0529 36.8767 44.3694 37.1931C44.6858 37.5096 45.115 37.6874 45.5625 37.6875H59.0625C59.51 37.6874 59.9392 37.5096 60.2556 37.1931C60.5721 36.8767 60.7499 36.4475 60.75 36V22.5C60.7499 22.0525 60.5721 21.6233 60.2556 21.3069C59.9392 20.9904 59.51 20.8126 59.0625 20.8125ZM55.6875 27.5625H48.9375C48.4899 27.5625 48.0607 27.3847 47.7443 27.0682C47.4278 26.7518 47.25 26.3226 47.25 25.875C47.25 25.4274 47.4278 24.9982 47.7443 24.6818C48.0607 24.3653 48.4899 24.1875 48.9375 24.1875H55.6875C56.1351 24.1875 56.5643 24.3653 56.8807 24.6818C57.1972 24.9982 57.375 25.4274 57.375 25.875C57.375 26.3226 57.1972 26.7518 56.8807 27.0682C56.5643 27.3847 56.1351 27.5625 55.6875 27.5625Z" fill="#FFBC57"/>
<path id="Vector_2" d="M48.375 0.5625H34.875C34.4275 0.562616 33.9983 0.740443 33.6819 1.05689C33.3654 1.37333 33.1876 1.80248 33.1875 2.25V15.75C33.1876 16.1975 33.3654 16.6267 33.6819 16.9431C33.9983 17.2596 34.4275 17.4374 34.875 17.4375H48.375C48.8225 17.4374 49.2517 17.2596 49.5681 16.9431C49.8846 16.6267 50.0624 16.1975 50.0625 15.75V2.25C50.0624 1.80248 49.8846 1.37333 49.5681 1.05689C49.2517 0.740443 48.8225 0.562616 48.375 0.5625ZM45 7.3125H38.25C37.8024 7.3125 37.3732 7.13471 37.0568 6.81824C36.7403 6.50178 36.5625 6.07255 36.5625 5.625C36.5625 5.17745 36.7403 4.74822 37.0568 4.43176C37.3732 4.11529 37.8024 3.9375 38.25 3.9375H45C45.4476 3.9375 45.8768 4.11529 46.1932 4.43176C46.5097 4.74822 46.6875 5.17745 46.6875 5.625C46.6875 6.07255 46.5097 6.50178 46.1932 6.81824C45.8768 7.13471 45.4476 7.3125 45 7.3125Z" fill="#FFBC57"/>
<path id="Vector_3" d="M38.8125 20.8125H25.3125C24.865 20.8126 24.4358 20.9904 24.1194 21.3069C23.8029 21.6233 23.6251 22.0525 23.625 22.5V36C23.6251 36.4475 23.8029 36.8767 24.1194 37.1931C24.4358 37.5096 24.865 37.6874 25.3125 37.6875H38.8125C39.26 37.6874 39.6892 37.5096 40.0056 37.1931C40.3221 36.8767 40.4999 36.4475 40.5 36V22.5C40.4999 22.0525 40.3221 21.6233 40.0056 21.3069C39.6892 20.9904 39.26 20.8126 38.8125 20.8125ZM35.4375 27.5625H28.6875C28.2399 27.5625 27.8107 27.3847 27.4943 27.0682C27.1778 26.7518 27 26.3226 27 25.875C27 25.4274 27.1778 24.9982 27.4943 24.6818C27.8107 24.3653 28.2399 24.1875 28.6875 24.1875H35.4375C35.8851 24.1875 36.3143 24.3653 36.6307 24.6818C36.9472 24.9982 37.125 25.4274 37.125 25.875C37.125 26.3226 36.9472 26.7518 36.6307 27.0682C36.3143 27.3847 35.8851 27.5625 35.4375 27.5625Z" fill="#FFBC57"/>
</g>
<path id="Vector_4" d="M67.4997 61.312H66.8804C66.913 61.1261 66.932 60.9381 66.9372 60.7495V44.9995C66.936 43.9556 66.5207 42.9548 65.7826 42.2166C65.0444 41.4785 64.0436 41.0632 62.9997 41.062H43.8747C43.069 41.0626 42.2831 41.3123 41.6247 41.7769C40.9664 41.3123 40.1805 41.0626 39.3747 41.062H20.2497C19.2058 41.0632 18.205 41.4785 17.4669 42.2166C16.7287 42.9548 16.3135 43.9556 16.3122 44.9995V56.2654C15.3156 55.5091 14.1625 54.9852 12.9372 54.732V20.2495C12.9372 19.9361 12.85 19.6289 12.6852 19.3623C12.5205 19.0957 12.2848 18.8802 12.0045 18.74L3.0045 14.24C2.80622 14.1404 2.59026 14.0809 2.36897 14.0649C2.14768 14.0489 1.92542 14.0767 1.71488 14.1467C1.50434 14.2167 1.30967 14.3275 1.14201 14.4728C0.97434 14.6181 0.836966 14.795 0.737746 14.9935C0.638525 15.1919 0.579405 15.408 0.563768 15.6293C0.54813 15.8506 0.576282 16.0728 0.646613 16.2833C0.716944 16.4937 0.828074 16.6882 0.973644 16.8556C1.11921 17.023 1.29637 17.1601 1.49497 17.259L9.56223 21.2921V54.7321C8.06867 55.037 6.6856 55.7408 5.55999 56.7687C4.43437 57.7967 3.60826 59.1104 3.16943 60.5702C2.7306 62.0301 2.69544 63.5815 3.06769 65.0597C3.43995 66.538 4.2057 67.8877 5.28359 68.9656C6.36148 70.0435 7.71125 70.8093 9.18947 71.1815C10.6677 71.5538 12.2191 71.5186 13.679 71.0798C15.1388 70.641 16.4525 69.8148 17.4805 68.6892C18.5084 67.5636 19.2122 66.1805 19.5172 64.687H67.4997C67.6488 64.6873 67.7917 64.7466 67.8972 64.8521C68.0026 64.9575 68.0619 65.1004 68.0622 65.2495V67.4995C68.0622 67.947 68.24 68.3763 68.5565 68.6927C68.873 69.0092 69.3022 69.187 69.7497 69.187C70.1973 69.187 70.6265 69.0092 70.943 68.6927C71.2594 68.3763 71.4372 67.947 71.4372 67.4995V65.2495C71.436 64.2056 71.0207 63.2048 70.2826 62.4666C69.5444 61.7285 68.5436 61.3132 67.4997 61.312ZM11.2497 68.062C10.2485 68.062 9.26968 67.7651 8.43716 67.2088C7.60464 66.6525 6.95576 65.8619 6.57259 64.9368C6.18943 64.0118 6.08917 62.9939 6.28451 62.0118C6.47985 61.0298 6.962 60.1278 7.67001 59.4198C8.37801 58.7118 9.28006 58.2296 10.2621 58.0343C11.2441 57.8389 12.262 57.9392 13.1871 58.3223C14.1121 58.7055 14.9028 59.3544 15.459 60.1869C16.0153 61.0194 16.3122 61.9982 16.3122 62.9995C16.3108 64.3417 15.7769 65.6285 14.8278 66.5776C13.8788 67.5267 12.5919 68.0605 11.2497 68.062ZM27.5622 44.437H32.0622V48.937H27.5622V44.437ZM39.9372 60.7495C39.9369 60.8986 39.8776 61.0415 39.7722 61.1469C39.6667 61.2523 39.5238 61.3117 39.3747 61.312H20.2497C20.1006 61.3117 19.9577 61.2523 19.8523 61.1469C19.7469 61.0415 19.6875 60.8986 19.6872 60.7495V44.9995C19.6875 44.8504 19.7469 44.7075 19.8523 44.6021C19.9577 44.4966 20.1006 44.4373 20.2497 44.437H24.1872V50.6245C24.1873 51.072 24.3652 51.5012 24.6816 51.8176C24.9981 52.134 25.4272 52.3119 25.8747 52.312H33.7497C34.1973 52.3119 34.6264 52.134 34.9429 51.8176C35.2593 51.5012 35.4371 51.072 35.4372 50.6245V44.437H39.3747C39.5238 44.4373 39.6667 44.4966 39.7722 44.6021C39.8776 44.7075 39.9369 44.8504 39.9372 44.9995V60.7495ZM51.1872 44.437H55.6872V48.937H51.1872V44.437ZM63.5622 60.7495C63.5619 60.8986 63.5026 61.0415 63.3972 61.1469C63.2917 61.2523 63.1488 61.3117 62.9997 61.312H43.8747C43.7256 61.3117 43.5827 61.2523 43.4773 61.1469C43.3719 61.0415 43.3125 60.8986 43.3122 60.7495V44.9995C43.3125 44.8504 43.3719 44.7075 43.4773 44.6021C43.5827 44.4966 43.7256 44.4373 43.8747 44.437H47.8122V50.6245C47.8124 51.072 47.9902 51.5012 48.3066 51.8176C48.6231 52.134 49.0522 52.3119 49.4997 52.312H57.3747C57.8223 52.3119 58.2514 52.134 58.5679 51.8176C58.8843 51.5012 59.0621 51.072 59.0622 50.6245V44.437H62.9997C63.1488 44.4373 63.2917 44.4966 63.3972 44.6021C63.5026 44.7075 63.5619 44.8504 63.5622 44.9995V60.7495Z" fill="#1B1B1B"/>
</g>
<defs>
<clipPath id="clip0_249_392">
<rect width="72" height="72" fill="white"/>
</clipPath>
</defs>
</svg>
